<svg viewBox="0 0 117 16" fill="none" xmlns="http://www.w3.org/2000/svg">
<path d="M0.757031 15V5.08H3.01703L3.21703 6.76C3.5237 6.17333 3.9637 5.70667 4.53703 5.36C5.1237 5.01333 5.81036 4.84 6.59703 4.84C7.8237 4.84 8.77703 5.22667 9.45703 6C10.137 6.77333 10.477 7.90667 10.477 9.4V15H7.91703V9.64C7.91703 8.78667 7.7437 8.13333 7.39703 7.68C7.05036 7.22667 6.51036 7 5.77703 7C5.05703 7 4.4637 7.25333 3.99703 7.76C3.5437 8.26667 3.31703 8.97333 3.31703 9.88V15H0.757031ZM17.685 15.24C16.725 15.24 15.8583 15.02 15.085 14.58C14.325 14.14 13.7183 13.5333 13.265 12.76C12.825 11.9733 12.605 11.0667 12.605 10.04C12.605 9.01333 12.8317 8.11333 13.285 7.34C13.7383 6.55333 14.345 5.94 15.105 5.5C15.8783 5.06 16.745 4.84 17.705 4.84C18.6517 4.84 19.505 5.06 20.265 5.5C21.0383 5.94 21.645 6.55333 22.085 7.34C22.5383 8.11333 22.765 9.01333 22.765 10.04C22.765 11.0667 22.5383 11.9733 22.085 12.76C21.645 13.5333 21.0383 14.14 20.265 14.58C19.4917 15.02 18.6317 15.24 17.685 15.24ZM17.685 13.02C18.3517 13.02 18.9317 12.7733 19.425 12.28C19.9183 11.7733 20.165 11.0267 20.165 10.04C20.165 9.05333 19.9183 8.31333 19.425 7.82C18.9317 7.31333 18.3583 7.06 17.705 7.06C17.025 7.06 16.4383 7.31333 15.945 7.82C15.465 8.31333 15.225 9.05333 15.225 10.04C15.225 11.0267 15.465 11.7733 15.945 12.28C16.4383 12.7733 17.0183 13.02 17.685 13.02ZM29.0833 15C28.0433 15 27.2099 14.7467 26.5833 14.24C25.9566 13.7333 25.6433 12.8333 25.6433 11.54V7.22H23.9433V5.08H25.6433L25.9433 2.42H28.2033V5.08H30.8833V7.22H28.2033V11.56C28.2033 12.04 28.3033 12.3733 28.5033 12.56C28.7166 12.7333 29.0766 12.82 29.5833 12.82H30.8233V15H29.0833ZM37.6473 15.24C36.6473 15.24 35.7607 15.0267 34.9873 14.6C34.214 14.1733 33.6073 13.5733 33.1673 12.8C32.7273 12.0267 32.5073 11.1333 32.5073 10.12C32.5073 9.09333 32.7207 8.18 33.1473 7.38C33.5873 6.58 34.1873 5.96 34.9473 5.52C35.7207 5.06667 36.6273 4.84 37.6673 4.84C38.6407 4.84 39.5007 5.05333 40.2473 5.48C40.994 5.90667 41.574 6.49333 41.9873 7.24C42.414 7.97333 42.6273 8.79333 42.6273 9.7C42.6273 9.84667 42.6207 10 42.6073 10.16C42.6073 10.32 42.6007 10.4867 42.5873 10.66H35.0473C35.1007 11.4333 35.3673 12.04 35.8473 12.48C36.3407 12.92 36.934 13.14 37.6273 13.14C38.1473 13.14 38.5807 13.0267 38.9273 12.8C39.2873 12.56 39.554 12.2533 39.7273 11.88H42.3273C42.1407 12.5067 41.8273 13.08 41.3873 13.6C40.9607 14.1067 40.4273 14.5067 39.7873 14.8C39.1607 15.0933 38.4473 15.24 37.6473 15.24ZM37.6673 6.92C37.0407 6.92 36.4873 7.1 36.0073 7.46C35.5273 7.80667 35.2207 8.34 35.0873 9.06H40.0273C39.9873 8.40667 39.7473 7.88667 39.3073 7.5C38.8673 7.11333 38.3207 6.92 37.6673 6.92ZM47.8005 15.06L45.1805 7.38C45.0871 7.1 45.0005 6.86 44.9205 6.66C44.8538 6.46 44.8005 6.28667 44.7605 6.14C44.7205 5.99333 44.6871 5.86667 44.6605 5.76L43.6005 5.82V5H47.8405V5.6C47.2405 5.61333 46.9071 5.82 46.8405 6.22C46.7871 6.60667 46.8671 7.12 47.0805 7.76L48.0005 10.56C48.1071 10.88 48.2138 11.2067 48.3205 11.54C48.4271 11.86 48.5338 12.18 48.6405 12.5C48.7605 12.14 48.8805 11.78 49.0005 11.42C49.1338 11.0467 49.2605 10.6733 49.3805 10.3L51.1605 5H51.9805L54.0005 10.82C54.1071 11.1133 54.2138 11.4133 54.3205 11.72C54.4271 12.0267 54.5338 12.3333 54.6405 12.64C54.7471 12.3467 54.8471 12.06 54.9405 11.78C55.0471 11.4867 55.1471 11.1933 55.2405 10.9L56.5605 7.1C56.6538 6.83333 56.7471 6.58 56.8405 6.34C56.9338 6.1 57.0405 5.90667 57.1605 5.76L56.0005 5.82V5H59.4805V5.6C59.1338 5.61333 58.8471 5.66 58.6205 5.74C58.4071 5.82 58.2271 5.92667 58.0805 6.06C57.9338 6.19333 57.8138 6.35333 57.7205 6.54C57.6271 6.72667 57.5405 6.94 57.4605 7.18L54.5805 15.06H53.7805L51.8805 9.6C51.8005 9.36 51.7205 9.12667 51.6405 8.9C51.5605 8.66 51.4805 8.42667 51.4005 8.2C51.3205 7.96 51.2405 7.72667 51.1605 7.5C51.0805 7.72667 51.0005 7.96 50.9205 8.2C50.8405 8.42667 50.7605 8.66 50.6805 8.9C50.6005 9.12667 50.5205 9.36 50.4405 9.6L48.5605 15.06H47.8005ZM60.3761 14.4C60.7894 14.4 61.0761 14.3 61.2361 14.1C61.3961 13.8867 61.4894 13.6 61.5161 13.24C61.5428 12.8667 61.5561 12.44 61.5561 11.96V7.4C61.5561 7.18667 61.5561 6.97333 61.5561 6.76C61.5694 6.54667 61.5961 6.32667 61.6361 6.1C61.3961 6.11333 61.1561 6.12667 60.9161 6.14C60.6894 6.14 60.4561 6.14667 60.2161 6.16V5.34H60.8361C61.4094 5.34 61.8028 5.28667 62.0161 5.18C62.2428 5.06 62.4294 4.93333 62.5761 4.8H63.1561C63.1828 5.01333 63.2028 5.28 63.2161 5.6C63.2294 5.90667 63.2428 6.3 63.2561 6.78C63.4561 6.44667 63.7294 6.12 64.0761 5.8C64.4228 5.48 64.8094 5.21333 65.2361 5C65.6761 4.78667 66.1361 4.68 66.6161 4.68C66.9894 4.68 67.3161 4.78 67.5961 4.98C67.8761 5.18 68.0161 5.5 68.0161 5.94C68.0161 6.04667 67.9828 6.18 67.9161 6.34C67.8494 6.48667 67.7428 6.62 67.5961 6.74C67.4494 6.84667 67.2561 6.9 67.0161 6.9C66.7228 6.88667 66.4894 6.77333 66.3161 6.56C66.1428 6.33333 66.0761 6.07333 66.1161 5.78C65.7828 5.76667 65.4361 5.85333 65.0761 6.04C64.7294 6.22667 64.4028 6.48667 64.0961 6.82C63.7894 7.14 63.5161 7.52 63.2761 7.96L63.2961 12.88C63.2961 13.1467 63.2894 13.3867 63.2761 13.6C63.2761 13.8 63.2561 14.0133 63.2161 14.24C63.4294 14.2267 63.6361 14.22 63.8361 14.22C64.0494 14.2067 64.2628 14.1933 64.4761 14.18V15H60.3761V14.4ZM69.0284 14.4C69.4418 14.4 69.7284 14.3 69.8884 14.1C70.0484 13.8867 70.1418 13.6 70.1684 13.24C70.1951 12.8667 70.2084 12.44 70.2084 11.96V7.4C70.2084 7.18667 70.2151 6.98667 70.2284 6.8C70.2418 6.6 70.2618 6.36667 70.2884 6.1C70.0484 6.11333 69.8084 6.12667 69.5684 6.14C69.3418 6.15333 69.1084 6.16667 68.8684 6.18V5.34C69.4551 5.34 69.9084 5.31333 70.2284 5.26C70.5484 5.20667 70.7884 5.14 70.9484 5.06C71.1218 4.98 71.2551 4.89333 71.3484 4.8H71.9284V12.88C71.9284 13.1467 71.9218 13.3867 71.9084 13.6C71.9084 13.8 71.8884 14.0133 71.8484 14.24C72.0618 14.2267 72.2684 14.22 72.4684 14.22C72.6818 14.2067 72.8951 14.1933 73.1084 14.18V15H69.0284V14.4ZM70.9684 2.82C70.6884 2.82 70.4418 2.70667 70.2284 2.48C70.0151 2.25333 69.9084 1.97333 69.9084 1.64C69.9084 1.30667 70.0151 1.02667 70.2284 0.799999C70.4551 0.559999 70.7084 0.439999 70.9884 0.439999C71.2951 0.439999 71.5484 0.559999 71.7484 0.799999C71.9618 1.02667 72.0684 1.30667 72.0684 1.64C72.0684 1.97333 71.9551 2.25333 71.7284 2.48C71.5151 2.70667 71.2618 2.82 70.9684 2.82ZM78.7259 15.32C78.4193 15.32 78.1059 15.2733 77.7859 15.18C77.4659 15.1 77.1659 14.9333 76.8859 14.68C76.6193 14.4267 76.4059 14.06 76.2459 13.58C76.0859 13.0867 76.0059 12.44 76.0059 11.64L76.0459 5.84L74.5059 5.86V5C74.8526 4.98667 75.2059 4.86 75.5659 4.62C75.9259 4.36667 76.2459 4.02667 76.5259 3.6C76.8193 3.17333 77.0193 2.70667 77.1259 2.2H77.8059V5H81.1659V5.78L77.8059 5.82L77.7659 11.38C77.7659 11.98 77.8126 12.4933 77.9059 12.92C78.0126 13.3333 78.1793 13.6467 78.4059 13.86C78.6326 14.0733 78.9259 14.18 79.2859 14.18C79.6593 14.18 80.0059 14.0733 80.3259 13.86C80.6593 13.6467 80.9526 13.3533 81.2059 12.98L81.7459 13.42C81.4526 13.86 81.1593 14.2067 80.8659 14.46C80.5859 14.7133 80.3126 14.9 80.0459 15.02C79.7793 15.1533 79.5326 15.2333 79.3059 15.26C79.0793 15.3 78.8859 15.32 78.7259 15.32ZM86.6556 15.32C86.349 15.32 86.0356 15.2733 85.7156 15.18C85.3956 15.1 85.0956 14.9333 84.8156 14.68C84.549 14.4267 84.3356 14.06 84.1756 13.58C84.0156 13.0867 83.9356 12.44 83.9356 11.64L83.9756 5.84L82.4356 5.86V5C82.7823 4.98667 83.1356 4.86 83.4956 4.62C83.8556 4.36667 84.1756 4.02667 84.4556 3.6C84.749 3.17333 84.949 2.70667 85.0556 2.2H85.7356V5H89.0956V5.78L85.7356 5.82L85.6956 11.38C85.6956 11.98 85.7423 12.4933 85.8356 12.92C85.9423 13.3333 86.109 13.6467 86.3356 13.86C86.5623 14.0733 86.8556 14.18 87.2156 14.18C87.589 14.18 87.9356 14.0733 88.2556 13.86C88.589 13.6467 88.8823 13.3533 89.1356 12.98L89.6756 13.42C89.3823 13.86 89.089 14.2067 88.7956 14.46C88.5156 14.7133 88.2423 14.9 87.9756 15.02C87.709 15.1533 87.4623 15.2333 87.2356 15.26C87.009 15.3 86.8156 15.32 86.6556 15.32ZM95.47 15.32C94.55 15.32 93.7167 15.1067 92.97 14.68C92.2367 14.24 91.6567 13.6267 91.23 12.84C90.8033 12.04 90.59 11.1 90.59 10.02C90.59 9.08667 90.7967 8.21333 91.21 7.4C91.6367 6.58667 92.23 5.93333 92.99 5.44C93.75 4.93333 94.63 4.68 95.63 4.68C96.19 4.68 96.71 4.77333 97.19 4.96C97.6833 5.13333 98.1167 5.40667 98.49 5.78C98.8633 6.14 99.1567 6.6 99.37 7.16C99.5833 7.70667 99.69 8.35333 99.69 9.1L92.65 9.22C92.65 10.2333 92.7567 11.1267 92.97 11.9C93.1967 12.66 93.5567 13.2533 94.05 13.68C94.5433 14.0933 95.1767 14.3 95.95 14.3C96.3633 14.3 96.7833 14.2267 97.21 14.08C97.65 13.9333 98.0567 13.7333 98.43 13.48C98.8033 13.2267 99.1033 12.9467 99.33 12.64L99.81 13.04C99.45 13.6 99.0167 14.0467 98.51 14.38C98.0033 14.7133 97.4833 14.9533 96.95 15.1C96.4167 15.2467 95.9233 15.32 95.47 15.32ZM92.71 8.38H97.81C97.81 7.9 97.7367 7.44 97.59 7C97.4567 6.54667 97.23 6.18 96.91 5.9C96.59 5.60667 96.17 5.46 95.65 5.46C94.8767 5.46 94.23 5.69333 93.71 6.16C93.2033 6.61333 92.87 7.35333 92.71 8.38ZM101.47 15V14.4C101.883 14.4 102.17 14.3 102.33 14.1C102.49 13.8867 102.583 13.6 102.61 13.24C102.637 12.8667 102.65 12.44 102.65 11.96L102.67 7.4C102.67 7.18667 102.67 6.97333 102.67 6.76C102.683 6.54667 102.71 6.32667 102.75 6.1C102.51 6.11333 102.27 6.12667 102.03 6.14C101.803 6.15333 101.57 6.16667 101.33 6.18V5.34C101.917 5.34 102.357 5.31333 102.65 5.26C102.957 5.20667 103.183 5.14 103.33 5.06C103.477 4.98 103.597 4.89333 103.69 4.8H104.27C104.283 4.89333 104.29 5 104.29 5.12C104.303 5.24 104.317 5.37333 104.33 5.52C104.343 5.66667 104.35 5.83333 104.35 6.02C104.643 5.76667 104.963 5.54 105.31 5.34C105.67 5.14 106.043 4.98 106.43 4.86C106.83 4.74 107.223 4.68 107.61 4.68C108.77 4.68 109.617 5.04667 110.15 5.78C110.683 6.5 110.95 7.62667 110.95 9.16V12.88C110.95 13.1467 110.943 13.3867 110.93 13.6C110.93 13.8 110.91 14.0133 110.87 14.24C111.083 14.2267 111.29 14.22 111.49 14.22C111.703 14.2067 111.917 14.1933 112.13 14.18V15H108.05V14.4C108.463 14.4 108.75 14.3 108.91 14.1C109.07 13.8867 109.163 13.6 109.19 13.24C109.217 12.8667 109.23 12.44 109.23 11.96V9.16C109.217 8.01333 109.023 7.14667 108.65 6.56C108.29 5.97333 107.717 5.68667 106.93 5.7C106.45 5.71333 105.977 5.84 105.51 6.08C105.057 6.32 104.677 6.62667 104.37 7C104.383 7.10667 104.39 7.22667 104.39 7.36C104.39 7.49333 104.39 7.63333 104.39 7.78L104.37 12.88C104.37 13.1467 104.363 13.3867 104.35 13.6C104.35 13.8 104.33 14.0133 104.29 14.24C104.503 14.2267 104.71 14.22 104.91 14.22C105.123 14.2067 105.337 14.1933 105.55 14.18V15H101.47ZM115.138 15.14C114.672 15.14 114.285 14.9933 113.978 14.7C113.685 14.4067 113.538 14.0533 113.538 13.64C113.538 13.2133 113.685 12.8533 113.978 12.56C114.285 12.2667 114.672 12.12 115.138 12.12C115.605 12.12 115.985 12.2667 116.278 12.56C116.585 12.8533 116.738 13.2133 116.738 13.64C116.738 14.0533 116.585 14.4067 116.278 14.7C115.985 14.9933 115.605 15.14 115.138 15.14Z" fill="currentColor"/>
</svg>
