<svg viewBox="0 0 14 16" fill="none" xmlns="http://www.w3.org/2000/svg">
<path d="M0.534903 12.4811C0.242489 12.4811 0 12.2386 0 11.9462V4.10092C0 0.955694 0.955693 0 4.10092 0H9.09335C12.2386 0 13.1943 0.955694 13.1943 4.10092V11.233C13.1943 11.3471 13.1943 11.4541 13.1871 11.5682C13.1657 11.8606 12.9019 12.0888 12.6166 12.0674C12.3242 12.046 12.0959 11.7893 12.1173 11.4969C12.1245 11.4113 12.1245 11.3185 12.1245 11.233V4.10092C12.1245 1.55479 11.6466 1.06981 9.09335 1.06981H4.10092C1.54765 1.06981 1.06981 1.55479 1.06981 4.10092V11.9462C1.06981 12.2386 0.827317 12.4811 0.534903 12.4811Z" fill="currentColor"/>
<path d="M10.1632 15.3339H3.03112C1.36222 15.3339 0 13.9717 0 12.3028V11.8392C0 10.4199 1.15539 9.27165 2.56753 9.27165H12.6594C12.9518 9.27165 13.1943 9.51414 13.1943 9.80656V12.3028C13.1943 13.9717 11.8321 15.3339 10.1632 15.3339ZM2.56753 10.3415C1.74022 10.3415 1.06981 11.0119 1.06981 11.8392V12.3028C1.06981 13.3868 1.94705 14.2641 3.03112 14.2641H10.1632C11.2472 14.2641 12.1245 13.3868 12.1245 12.3028V10.3415H2.56753Z" fill="currentColor"/>
<path d="M9.44995 4.63583H3.74431C3.4519 4.63583 3.20941 4.39334 3.20941 4.10093C3.20941 3.80851 3.4519 3.56602 3.74431 3.56602H9.44995C9.74236 3.56602 9.98485 3.80851 9.98485 4.10093C9.98485 4.39334 9.74236 4.63583 9.44995 4.63583Z" fill="currentColor"/>
<path d="M7.31034 7.13203H3.74431C3.4519 7.13203 3.20941 6.88954 3.20941 6.59713C3.20941 6.30471 3.4519 6.06223 3.74431 6.06223H7.31034C7.60275 6.06223 7.84524 6.30471 7.84524 6.59713C7.84524 6.88954 7.60275 7.13203 7.31034 7.13203Z" fill="currentColor"/>
</svg>
