<svg viewBox="0 0 16 15" fill="none" xmlns="http://www.w3.org/2000/svg">
<path d="M15.1286 10.9448V2.41822C15.1286 1.57051 14.4363 0.941784 13.5956 1.01243H13.5533C12.0698 1.13958 9.81625 1.89546 8.5588 2.68667L8.43871 2.76437C8.23384 2.89153 7.89476 2.89153 7.68989 2.76437L7.51329 2.65841C6.25584 1.87427 4.00939 1.12546 2.52589 1.00536C1.68524 0.93472 1 1.57051 1 2.41116V10.9448C1 11.623 1.55102 12.2588 2.22919 12.3435L2.43405 12.3718C3.96701 12.5767 6.33355 13.3537 7.68989 14.0955L7.71815 14.1096C7.90889 14.2156 8.21265 14.2156 8.39632 14.1096C9.75267 13.3608 12.1263 12.5767 13.6663 12.3718L13.8994 12.3435C14.5776 12.2588 15.1286 11.623 15.1286 10.9448Z" stroke="currentColor" stroke-linecap="round" stroke-linejoin="round"/>
<path d="M8.06433 2.99753V13.594" stroke="currentColor" stroke-linecap="round" stroke-linejoin="round"/>
<path d="M5.062 5.11682H3.47253" stroke="currentColor" stroke-linecap="round" stroke-linejoin="round"/>
<path d="M5.59182 7.23611H3.47253" stroke="currentColor" stroke-linecap="round" stroke-linejoin="round"/>
</svg>
