<svg viewBox="0 0 215 176" fill="none" xmlns="http://www.w3.org/2000/svg">
<path d="M87.4388 75.7249C85.2528 75.7302 83.1284 76.4494 81.3888 77.7732C79.6493 79.0969 78.3898 80.9528 77.8021 83.0583L64.3054 131.618C63.9827 132.789 63.2878 133.823 62.3256 134.564C61.3635 135.305 60.1864 135.712 58.9721 135.725C57.7844 135.709 56.63 135.331 55.6636 134.64C54.6972 133.95 53.9651 132.98 53.5654 131.862L44.2554 106.262C43.6487 104.517 42.632 102.944 41.2909 101.674C39.9499 100.405 38.3236 99.4755 36.5488 98.9649C35.6894 98.7567 34.948 98.2157 34.4876 97.4609C34.0272 96.706 33.8856 95.7992 34.0938 94.9399C34.3019 94.0806 34.843 93.3392 35.5978 92.8788C36.3526 92.4184 37.2594 92.2767 38.1188 92.4849C40.9658 93.2479 43.5837 94.6942 45.7452 96.6983C47.9066 98.7023 49.5464 101.204 50.5221 103.985L58.7688 126.652L71.3821 81.2649C72.3642 77.7594 74.4639 74.6704 77.362 72.4671C80.2601 70.2639 83.7983 69.067 87.4388 69.0583H110.639C111.523 69.0583 112.371 69.4094 112.996 70.0346C113.621 70.6597 113.972 71.5075 113.972 72.3916C113.972 73.2756 113.621 74.1235 112.996 74.7486C112.371 75.3737 111.523 75.7249 110.639 75.7249H87.4388ZM112.639 103.058C111.932 102.528 111.043 102.3 110.167 102.425C109.292 102.55 108.503 103.018 107.972 103.725L100.639 113.502L93.3054 103.725C92.775 103.018 91.9853 102.55 91.1102 102.425C90.235 102.3 89.346 102.528 88.6388 103.058C87.9315 103.589 87.4639 104.378 87.3389 105.254C87.2139 106.129 87.4417 107.018 87.9721 107.725L96.4721 119.058L87.9721 130.392C87.7094 130.742 87.5183 131.14 87.4097 131.564C87.3011 131.988 87.277 132.43 87.3389 132.863C87.4008 133.296 87.5475 133.713 87.7705 134.09C87.9935 134.467 88.2886 134.796 88.6388 135.058C88.9889 135.321 89.3874 135.512 89.8115 135.621C90.2355 135.729 90.6768 135.753 91.1102 135.691C91.5435 135.63 91.9604 135.483 92.3371 135.26C92.7137 135.037 93.0428 134.742 93.3054 134.392L100.639 124.615L107.972 134.392C108.235 134.742 108.564 135.037 108.94 135.26C109.317 135.483 109.734 135.63 110.167 135.691C110.601 135.753 111.042 135.729 111.466 135.621C111.89 135.512 112.289 135.321 112.639 135.058C112.989 134.796 113.284 134.467 113.507 134.09C113.73 133.713 113.877 133.296 113.939 132.863C114 132.43 113.976 131.988 113.868 131.564C113.759 131.14 113.568 130.742 113.305 130.392L104.805 119.058L113.305 107.725C113.568 107.375 113.759 106.976 113.868 106.552C113.976 106.128 114 105.687 113.939 105.254C113.877 104.82 113.73 104.403 113.507 104.027C113.284 103.65 112.989 103.321 112.639 103.058Z" fill="black" fill-opacity="0.1"/>
<path d="M135.5 31L22 31C10.9543 31 2 39.9543 2 51L2 154C2 165.046 10.9543 174 22 174L134 174C145.046 174 154 165.046 154 154L154 105.5" stroke="black" stroke-opacity="0.1" stroke-width="3" stroke-linecap="round" stroke-dasharray="10 10"/>
<g clip-path="url(#clip0_11_989)">
<path d="M132.863 65.443C130.171 67.8691 128.552 71.2654 128.363 74.8848L128 81.8898L135.005 82.2533C138.624 82.4404 142.17 81.182 144.862 78.7551L192.752 35.5902L180.753 22.2781L132.863 65.443Z" fill="black" fill-opacity="0.1"/>
<path d="M211.07 7.01533C210.283 6.14048 209.33 5.42945 208.268 4.92291C207.205 4.41637 206.053 4.12424 204.877 4.06324C203.701 4.00223 202.525 4.17354 201.416 4.56737C200.306 4.9612 199.286 5.56982 198.412 6.35845L185.828 17.7038L197.827 31.0159L210.413 19.6741C211.288 18.8864 211.999 17.934 212.506 16.8713C213.012 15.8086 213.305 14.6565 213.366 13.4809C213.427 12.3052 213.255 11.1291 212.861 10.0197C212.468 8.91028 211.859 7.88937 211.07 7.01533Z" fill="black" fill-opacity="0.1"/>
</g>
<defs>
<clipPath id="clip0_11_989">
<rect width="82" height="82" fill="white" transform="translate(132.249) rotate(2.9705)"/>
</clipPath>
</defs>
</svg>
