<svg width="128" height="128" viewBox="0 0 128 128" fill="none" xmlns="http://www.w3.org/2000/svg">
<g clip-path="url(#clip0_58_4)">
<rect width="128" height="128" rx="64" fill="white"/>
<path d="M29.5056 87V39.384H40.3536L41.3136 47.448C42.7856 44.632 44.8976 42.392 47.6496 40.728C50.4656 39.064 53.7616 38.232 57.5376 38.232C63.4256 38.232 68.0016 40.088 71.2656 43.8C74.5296 47.512 76.1616 52.952 76.1616 60.12V87H63.8736V61.272C63.8736 57.176 63.0416 54.04 61.3776 51.864C59.7136 49.688 57.1216 48.6 53.6016 48.6C50.1456 48.6 47.2976 49.816 45.0576 52.248C42.8816 54.68 41.7936 58.072 41.7936 62.424V87H29.5056ZM93.1919 87.672C90.9519 87.672 89.0959 86.968 87.6239 85.56C86.2159 84.152 85.5119 82.456 85.5119 80.472C85.5119 78.424 86.2159 76.696 87.6239 75.288C89.0959 73.88 90.9519 73.176 93.1919 73.176C95.4319 73.176 97.2559 73.88 98.6639 75.288C100.136 76.696 100.872 78.424 100.872 80.472C100.872 82.456 100.136 84.152 98.6639 85.56C97.2559 86.968 95.4319 87.672 93.1919 87.672Z" fill="black"/>
</g>
<defs>
<clipPath id="clip0_58_4">
<rect width="128" height="128" rx="64" fill="white"/>
</clipPath>
</defs>
</svg>
